
      <svg data-logo="logo" xmlns="http://www.w3.org/2000/svg" viewBox="0 0 41 41">
        <g id="logogram" transform="translate(0, 0) rotate(0) "><path d="M19.4795 11.6726C19.0858 8.29874 18.6701 4.73645 18.6701 0.600006H22.3843C22.3843 4.68999 21.9706 8.24775 21.5774 11.6254C21.2571 14.378 20.9507 17.011 20.8938 19.715C22.7588 17.7697 24.3902 15.707 26.0992 13.5463C28.2063 10.8823 30.4315 8.06946 33.3562 5.14465L35.9826 7.77105C33.0905 10.6631 30.2819 12.8861 27.6156 14.9966L27.6131 14.9985C25.4413 16.7178 23.3637 18.3624 21.4122 20.2334C24.1062 20.1765 26.7183 19.8717 29.4544 19.5524C32.8283 19.1586 36.3908 18.7429 40.5272 18.7429V22.4571C36.4374 22.4571 32.8796 22.0432 29.5021 21.6502L29.4996 21.65C26.7476 21.3298 24.1154 21.0236 21.4122 20.9666C23.3562 22.8302 25.4178 24.4609 27.5771 26.1687L27.5805 26.1716C30.2446 28.2789 33.0576 30.5039 35.9826 33.429L33.3562 36.0554C30.4641 33.1634 28.2412 30.355 26.131 27.6889L26.126 27.682L26.1218 27.6765C24.4047 25.5081 22.7621 23.4338 20.8938 21.485C20.9507 24.189 21.2571 26.822 21.5774 29.5746C21.9706 32.9523 22.3843 36.51 22.3843 40.6H18.6701C18.6701 36.4636 19.0858 32.9013 19.4795 29.5274L19.4803 29.5219C19.7992 26.7877 20.1037 24.1772 20.1606 21.485C18.2923 23.4338 16.6497 25.5081 14.9326 27.6765L14.9284 27.682L14.9234 27.6889C12.8132 30.355 10.5903 33.1634 7.69826 36.0554L5.07186 33.429C7.99681 30.5039 10.8098 28.2789 13.4739 26.1716L13.4773 26.1687C15.6366 24.4609 17.6982 22.8302 19.6422 20.9666C16.9382 21.0237 14.3051 21.33 11.5523 21.6502C8.17482 22.0432 4.61706 22.4571 0.527222 22.4571V18.7429C4.66366 18.7429 8.22616 19.1586 11.6 19.5524C14.3361 19.8717 16.9482 20.1765 19.6422 20.2334C17.6899 18.3617 15.6115 16.7166 13.4388 14.9966C10.7725 12.8861 7.96388 10.6631 5.07186 7.77105L7.69826 5.14465C10.6229 8.06946 12.8481 10.8823 14.9552 13.5463C16.6642 15.7069 18.2956 17.7696 20.1606 19.7148C20.1037 17.0227 19.7992 14.4123 19.4803 11.6781L19.4795 11.6726Z" fill="#FFA589"/></g>
        <g id="logotype" transform="translate(41, 20.5)"></g>
        
      </svg>
    